<?xml version="1.0" encoding="UTF-8" standalone="no"?>
<!-- Created with Inkscape (http://www.inkscape.org/) -->

<svg
   xmlns:dc="http://purl.org/dc/elements/1.1/"
   xmlns:cc="http://creativecommons.org/ns#"
   xmlns:rdf="http://www.w3.org/1999/02/22-rdf-syntax-ns#"
   xmlns:svg="http://www.w3.org/2000/svg"
   xmlns="http://www.w3.org/2000/svg"
   xmlns:sodipodi="http://sodipodi.sourceforge.net/DTD/sodipodi-0.dtd"
   xmlns:inkscape="http://www.inkscape.org/namespaces/inkscape"
   version="1.1"
   id="svg2"
   xml:space="preserve"
   width="243.03333"
   height="70.583069"
   viewBox="0 0 243.03333 70.583069"
   sodipodi:docname="logo.svg"
   inkscape:version="0.92.1 r15371"><metadata
     id="metadata8"><rdf:RDF><cc:Work
         rdf:about=""><dc:format>image/svg+xml</dc:format><dc:type
           rdf:resource="http://purl.org/dc/dcmitype/StillImage" /><dc:title></dc:title></cc:Work></rdf:RDF></metadata><defs
     id="defs6"><clipPath
       clipPathUnits="userSpaceOnUse"
       id="clipPath18"><path
         d="M 0,52.937 H 182.275 V 0 H 0 Z"
         id="path16"
         inkscape:connector-curvature="0" /></clipPath></defs><sodipodi:namedview
     pagecolor="#ffffff"
     bordercolor="#666666"
     borderopacity="1"
     objecttolerance="10"
     gridtolerance="10"
     guidetolerance="10"
     inkscape:pageopacity="0"
     inkscape:pageshadow="2"
     inkscape:window-width="1366"
     inkscape:window-height="745"
     id="namedview4"
     showgrid="false"
     inkscape:zoom="2.2810523"
     inkscape:cx="114.42562"
     inkscape:cy="28.5048"
     inkscape:window-x="-8"
     inkscape:window-y="-8"
     inkscape:window-maximized="1"
     inkscape:current-layer="g10"
     inkscape:pagecheckerboard="true" /><g
     id="g10"
     inkscape:groupmode="layer"
     inkscape:label="logo_horizontal_branco (1)"
     transform="matrix(1.3333333,0,0,-1.3333333,0,70.583067)"><g
       id="g12"
       transform="translate(0,-3)"
       style="opacity:1"><g
         id="g14"
         clip-path="url(#clipPath18)"
         style=""><g
           id="g20"
           transform="translate(8.8092,32.5116)"
           style=""><path
             d="m 0,0 c 0.173,1.331 0.792,2.958 1.48,4.036 0.204,0.32 0.414,0.591 0.62,0.792 0.035,0.035 0.07,0.068 0.105,0.099 0.114,0.098 0.257,0.175 0.503,0.236 0.327,0.082 0.836,0.135 1.699,0.168 0.414,0.017 0.91,0.028 1.506,0.038 0.365,0.004 0.77,0.009 1.214,0.013 0.823,0.008 1.789,0.012 2.925,0.014 0.458,0 0.909,0.003 1.349,0 0.367,0 0.727,0 1.071,-0.002 0.601,-0.002 1.162,-0.004 1.667,-0.009 0.082,0 0.164,-0.003 0.243,-0.003 0.077,0 0.154,-0.002 0.227,-0.002 0.25,-0.002 0.481,-0.005 0.692,-0.009 0.316,-0.005 0.582,-0.012 0.793,-0.017 0.065,-0.002 0.123,-0.004 0.177,-0.004 0.047,-0.002 0.091,-0.002 0.131,-0.005 0.103,-0.005 0.176,-0.009 0.208,-0.014 0.318,-0.049 0.587,-0.164 0.844,-0.379 0.024,-0.018 0.045,-0.039 0.068,-0.058 0.283,-0.26 0.552,-0.645 0.861,-1.206 0.009,-0.015 0.016,-0.031 0.025,-0.045 0.22,-0.405 0.451,-0.924 0.662,-1.457 0.374,-0.947 0.68,-1.943 0.737,-2.457 0.004,-0.052 0.009,-0.096 0.009,-0.138 0,-0.009 -0.003,-0.019 -0.007,-0.026 -0.01,-0.016 -0.028,-0.03 -0.068,-0.042 -0.115,-0.035 -0.39,-0.061 -1.043,-0.077 -0.042,0 -0.086,-0.003 -0.131,-0.003 C 18.399,-0.561 18.209,-0.563 17.995,-0.566 17.721,-0.57 17.408,-0.573 17.05,-0.575 15.574,-0.584 13.318,-0.587 9.872,-0.587 H 8.364 7.25 -0.077 Z m 4.293,-7.405 v 0 C 3.994,-7.458 3.257,-7.47 2.53,-7.442 2.233,-7.43 1.938,-7.415 1.674,-7.391 c -0.14,0.012 -0.269,0.026 -0.388,0.04 -0.098,0.012 -0.194,0.028 -0.285,0.044 -1.506,0.269 -2.175,1.045 -1.847,2.163 0.182,0.622 0.573,0.961 1.108,0.961 0.61,0 3.068,-1.183 4.145,-1.91 0.283,-0.192 0.47,-0.351 0.506,-0.449 0.114,-0.328 -0.22,-0.791 -0.62,-0.863 M 23.91,-0.463 C 23.833,-0.178 23.218,0.166 22.47,0.339 22.016,0.444 21.899,0.437 21.661,0.292 21.424,0.15 21.38,0.044 21.38,-0.381 c 0,-0.152 -0.007,-0.274 -0.023,-0.365 -0.059,-0.351 -0.227,-0.28 -0.491,0.192 -0.129,0.231 -0.281,0.561 -0.454,0.984 -0.1,0.246 -0.208,0.527 -0.323,0.835 C 19.61,2.563 19.22,3.442 18.801,4.131 18.621,4.429 18.437,4.69 18.235,4.934 17.868,5.382 17.637,5.668 17.05,5.845 16.475,6.019 15.561,6.088 13.851,6.1 13.554,6.103 13.236,6.103 12.89,6.103 12.53,6.103 12.145,6.098 11.726,6.096 11.018,6.088 10.223,6.079 9.325,6.065 8.602,6.056 7.877,6.054 7.155,6.049 6.638,6.044 6.121,6.04 5.609,6.025 5.415,6.021 5.224,6.014 5.032,6.007 4.91,6.002 4.789,5.998 4.667,5.99 4.228,5.969 3.788,5.941 3.355,5.901 3.22,5.89 3.086,5.876 2.951,5.862 L 2.874,5.841 2.408,5.712 C 2.315,5.663 2.224,5.609 2.132,5.546 2.079,5.509 2.027,5.471 1.976,5.429 1.889,5.359 1.803,5.282 1.719,5.198 1.585,5.064 1.455,4.913 1.326,4.739 1.216,4.592 1.106,4.431 0.999,4.251 0.937,4.153 0.877,4.047 0.818,3.938 0.397,3.17 -0.023,2.153 -0.479,0.821 -0.802,-0.126 -1.022,-0.638 -1.213,-0.865 -1.26,-0.921 -1.307,-0.958 -1.352,-0.982 c -0.035,-0.017 -0.067,-0.026 -0.102,-0.026 -0.106,0 -0.154,0.131 -0.154,0.414 0,0.554 -0.269,0.922 -0.679,0.922 H -2.324 C -2.371,0.325 -2.422,0.32 -2.479,0.311 -2.506,0.306 -2.537,0.302 -2.567,0.294 c -0.501,-0.095 -1.244,-0.38 -1.438,-0.579 -0.379,-0.386 0.117,-1.071 0.912,-1.254 0.002,0 0.004,-0.002 0.007,-0.002 0.296,-0.07 0.582,-0.229 0.759,-0.423 0.253,-0.276 0.281,-0.379 0.225,-0.835 -0.086,-0.718 -0.089,-3.402 -0.014,-6.133 0.016,-0.65 0.04,-1.305 0.066,-1.934 0.107,-2.641 0.156,-3.151 0.306,-3.259 0.051,-0.038 0.166,-0.065 0.341,-0.086 0.227,-0.029 0.552,-0.042 0.966,-0.042 0.764,0 1.164,-0.009 1.377,0.217 0.201,0.213 0.236,0.634 0.252,1.468 0.005,0.169 0.008,0.354 0.01,0.557 l 0.03,1.772 0.402,-0.002 3.087,-0.009 c -0.033,0.046 -0.061,0.095 -0.087,0.147 -0.063,0.124 -0.121,0.264 -0.21,0.423 -0.493,0.88 -0.414,1.23 1.368,1.73 0.168,0.047 0.334,0.089 0.491,0.124 0.988,0.218 1.753,0.192 2.041,-0.07 0.028,-0.025 0.051,-0.049 0.07,-0.07 0.199,0.629 0.46,1.599 0.575,1.88 0.082,0.199 0.164,0.388 0.25,0.573 0.085,0.178 0.169,0.348 0.255,0.512 0.159,0.299 0.325,0.575 0.498,0.828 0.077,0.111 0.154,0.217 0.234,0.32 0.14,0.18 0.283,0.348 0.43,0.5 0.323,0.334 0.662,0.596 1.02,0.793 0.474,0.259 0.982,0.4 1.515,0.418 0.54,0.021 1.141,0.038 1.772,0.049 0.8,0.017 1.648,0.029 2.478,0.035 h 0.047 c 0.466,0.005 0.926,0.008 1.368,0.008 0.519,0.002 1.015,0.002 1.469,0 0.549,-0.003 1.04,-0.005 1.433,-0.01 0.131,-0.002 0.26,-0.004 0.386,-0.009 0.035,0.159 0.082,0.217 0.156,0.29 0.05,0.047 0.122,0.1 0.208,0.15 0.122,0.069 0.264,0.135 0.395,0.177 0.014,0.005 0.031,0.01 0.045,0.014 0.571,0.166 1.069,0.655 0.982,0.975"
             style="fill:#ffffff;fill-opacity:1;fill-rule:nonzero;stroke:none"
             id="path22"
             inkscape:connector-curvature="0" /></g><g
           id="g24"
           transform="translate(18.4049,23.0306)"
           style=""><path
             d="M 0,0 V 0 H 0.073 Z"
             style="fill:#ffffff;fill-opacity:1;fill-rule:nonzero;stroke:none"
             id="path26"
             inkscape:connector-curvature="0" /></g><g
           id="g28"
           transform="translate(38.857,36.0985)"
           style=""><path
             d="m 0,0 c -0.019,-0.449 -0.04,-0.533 -0.176,-0.72 -0.402,-0.559 -1.173,-0.816 -2.77,-0.928 -1.125,-0.08 -2.168,-0.066 -2.383,0.035 -0.341,0.156 -0.514,0.645 -0.322,0.914 0.2,0.282 2.913,1.74 4.007,2.151 0.269,0.1 0.715,0.105 0.916,0.009 0.239,-0.114 0.492,-0.39 0.627,-0.683 C 0.004,0.544 0.019,0.437 0,0 m -10.824,5.179 h -9.883 l 0.038,0.372 c 0.091,0.923 0.385,1.922 0.898,3.025 0.166,0.358 0.301,0.664 0.301,0.681 0,0.016 0.138,0.233 0.306,0.484 0.372,0.554 0.763,0.961 1.01,1.056 0.554,0.213 2.479,0.284 7.782,0.281 4.477,-0.002 6.193,-0.04 6.593,-0.147 0.756,-0.206 1.731,-1.738 2.366,-3.723 0.29,-0.907 0.473,-1.62 0.473,-1.863 L -0.938,5.179 Z M 3.306,5.296 C 3.217,5.513 2.789,5.785 2.235,5.976 1.65,6.177 1.241,6.212 0.973,6.086 0.683,5.948 0.622,5.803 0.622,5.258 0.622,4.707 0.563,4.641 0.325,4.936 0.086,5.228 -0.031,5.495 -0.4,6.596 c -0.802,2.384 -1.44,3.587 -2.413,4.536 -0.32,0.311 -0.383,0.348 -0.814,0.474 -0.285,0.084 -0.715,0.157 -1.108,0.192 -0.877,0.075 -12.079,0.037 -12.696,-0.04 -1.125,-0.145 -1.892,-0.799 -2.637,-2.258 -0.515,-1.003 -0.807,-1.772 -1.328,-3.498 -0.083,-0.269 -0.225,-0.615 -0.319,-0.77 -0.191,-0.32 -0.43,-0.575 -0.5,-0.532 -0.026,0.013 -0.047,0.208 -0.047,0.432 0,0.44 -0.058,0.618 -0.271,0.835 -0.199,0.201 -0.55,0.192 -1.279,-0.035 -1.066,-0.33 -1.302,-0.611 -1.008,-1.188 0.18,-0.353 0.58,-0.58 1.165,-0.66 0.278,-0.039 0.474,-0.172 0.69,-0.472 L -22.821,3.411 -22.83,3.28 c 0.75,0.005 1.476,0.014 2.163,0.031 1.779,0.044 6.43,0.007 7.222,-0.134 l 0.017,-0.004 0.06,-0.017 0.022,-0.004 0.018,-0.005 0.052,-0.014 0.187,-0.049 c 0.005,0 0.007,-0.002 0.011,-0.002 1.457,-0.309 2.465,-1.665 3.421,-3.952 0.129,-0.306 0.428,-1.436 0.629,-2.044 0.009,0.061 0.054,0.124 0.175,0.234 0.332,0.306 1.153,0.29 2.376,-0.053 1.782,-0.503 1.91,-1.448 0.977,-1.936 -0.713,-0.372 -0.981,-0.688 -1.096,-0.934 0.007,-0.018 0.012,-0.034 0.016,-0.053 0.136,-0.007 0.288,-0.014 0.458,-0.021 1.892,-0.059 1.289,-0.021 2.61,-0.148 1.716,-0.165 2.396,-1.482 3.456,-4.012 0.128,-0.306 0.428,-1.435 0.629,-2.043 0.009,0.06 0.053,0.124 0.175,0.234 0.042,0.037 0.091,0.072 0.148,0.1 0.114,1.204 0.13,3.014 0.135,3.112 l 0.028,0.753 0.126,2.49 c 0,0.122 0.002,0.234 0.002,0.337 0.106,0.126 0.25,3.105 0.267,4.384 C 1.463,0.299 1.442,1.234 1.405,1.667 1.309,2.761 1.33,3.509 1.463,3.743 c 0.115,0.201 0.419,0.414 0.594,0.414 0.241,0 0.646,0.173 0.903,0.386 0.299,0.246 0.435,0.538 0.346,0.753"
             style="fill:#ffffff;fill-opacity:1;fill-rule:nonzero;stroke:none"
             id="path30"
             inkscape:connector-curvature="0" /></g><g
           id="g32"
           transform="translate(17.526,17.6127)"
           style=""><path
             d="M 0,0 C -0.063,0.258 -0.052,0.548 0.042,0.863 0.224,1.485 0.615,1.824 1.15,1.824 1.739,1.824 4.052,0.721 5.181,-0.012 5.195,-0.021 5.209,-0.03 5.221,-0.037 5.289,-0.082 5.352,-0.124 5.41,-0.166 5.63,-0.322 5.773,-0.451 5.801,-0.537 5.84,-0.654 5.822,-0.79 5.763,-0.921 5.661,-1.147 5.431,-1.352 5.177,-1.397 5.123,-1.407 5.055,-1.417 4.978,-1.424 4.674,-1.452 4.197,-1.456 3.699,-1.444 3.65,-1.444 3.603,-1.442 3.554,-1.44 3.388,-1.436 3.22,-1.429 3.056,-1.419 2.731,-1.4 2.42,-1.377 2.172,-1.344 1.957,-1.316 1.756,-1.278 1.571,-1.234 0.739,-1.028 0.212,-0.643 0.03,-0.112 0.023,-0.091 0.016,-0.072 0.012,-0.051 0.009,-0.032 0.004,-0.016 0,0 m 0.884,6.01 c 0.1,0.783 0.404,1.774 0.795,2.681 0.112,0.262 0.234,0.517 0.358,0.758 0.1,0.194 0.203,0.376 0.308,0.547 0.119,0.196 0.241,0.374 0.365,0.531 0.021,0.028 0.044,0.056 0.065,0.081 0.105,0.129 0.211,0.239 0.313,0.328 0.089,0.077 0.197,0.14 0.358,0.194 0.164,0.056 0.386,0.098 0.702,0.133 0.051,0.005 0.105,0.012 0.164,0.016 0.369,0.035 0.855,0.059 1.5,0.077 0.433,0.012 0.94,0.022 1.532,0.029 0.098,0 0.199,0.002 0.299,0.002 0.898,0.009 1.981,0.014 3.293,0.016 h 0.222 0.855 0.723 c 0.187,0 0.371,0 0.554,-0.002 h 0.025 c 0.648,-0.002 1.251,-0.005 1.787,-0.011 0.547,-0.005 1.024,-0.012 1.408,-0.019 0.046,0 0.091,-0.003 0.133,-0.003 h 0.014 c 0.074,-0.002 0.142,-0.002 0.208,-0.004 0.056,-0.003 0.108,-0.003 0.156,-0.005 0.152,-0.005 0.274,-0.009 0.358,-0.014 0.057,-0.002 0.096,-0.007 0.117,-0.01 0.003,0 0.005,0 0.007,-0.002 0.183,-0.028 0.346,-0.077 0.503,-0.156 0.194,-0.096 0.374,-0.237 0.552,-0.433 0.03,-0.033 0.061,-0.068 0.091,-0.105 0.11,-0.134 0.222,-0.29 0.337,-0.47 0.098,-0.157 0.199,-0.33 0.306,-0.524 0.192,-0.351 0.391,-0.79 0.58,-1.251 C 20.318,7.298 20.695,6.077 20.7,5.593 20.7,5.577 20.695,5.561 20.674,5.546 20.665,5.539 20.653,5.535 20.639,5.527 20.384,5.432 19.128,5.415 13.332,5.413 H 13.173 10.87 10.753 9.656 8.854 8.527 8.207 6.989 6.194 5.871 4.58 1.386 0.952 0.879 0.809 l 0.028,0.22 0.005,0.035 0.009,0.079 z M 21.56,-0.104 c -0.042,-0.176 -0.131,-0.293 -0.309,-0.48 -0.439,-0.459 -1.094,-0.645 -2.747,-0.774 -0.012,0 -0.021,-0.002 -0.033,-0.002 -0.25,-0.019 -0.46,-0.036 -0.638,-0.047 -0.758,-0.052 -0.963,-0.042 -1.398,0.018 -0.197,0.029 -0.379,0.148 -0.5,0.307 -0.089,0.116 -0.143,0.257 -0.143,0.395 0,0.117 0.138,0.332 0.306,0.477 0.591,0.505 3.367,1.917 4.078,2.074 C 20.585,1.955 21.16,1.7 21.403,1.319 21.527,1.127 21.593,0.803 21.593,0.4 21.597,0.173 21.59,0.019 21.56,-0.104 m 3.236,5.648 C 24.766,5.651 24.66,5.769 24.499,5.881 24.235,6.065 23.821,6.238 23.355,6.346 22.902,6.451 22.785,6.444 22.547,6.299 22.54,6.295 22.535,6.292 22.528,6.287 22.308,6.152 22.266,6.04 22.266,5.626 c 0,-0.292 -0.03,-0.475 -0.086,-0.547 -0.134,-0.171 -0.414,0.243 -0.821,1.213 -0.017,0.04 -0.035,0.082 -0.051,0.127 -0.103,0.252 -0.213,0.537 -0.332,0.857 -0.445,1.207 -0.817,2.051 -1.203,2.72 0,0 0,0.002 -0.002,0.002 -0.208,0.358 -0.42,0.664 -0.65,0.947 -0.096,0.119 -0.184,0.224 -0.271,0.323 -0.047,0.054 -0.096,0.103 -0.145,0.149 -0.054,0.052 -0.11,0.101 -0.171,0.146 -0.004,0.002 -0.007,0.004 -0.012,0.006 -0.006,0.005 -0.013,0.01 -0.021,0.014 -0.046,0.033 -0.095,0.066 -0.149,0.096 -0.173,0.098 -0.381,0.175 -0.657,0.237 -0.224,0.049 -0.491,0.088 -0.82,0.116 -0.167,0.014 -0.349,0.029 -0.55,0.038 -0.458,0.023 -1.01,0.035 -1.681,0.039 -0.393,0.003 -0.828,0.003 -1.307,0 h -0.003 c -0.084,0 -0.173,0 -0.259,-0.002 H 13.063 13.002 C 12.635,12.105 12.24,12.1 11.819,12.096 11.321,12.091 10.786,12.082 10.206,12.075 9.811,12.07 9.416,12.065 9.021,12.063 8.707,12.061 8.392,12.058 8.078,12.056 c -0.063,0 -0.126,0 -0.189,-0.003 -0.129,0 -0.258,-0.002 -0.384,-0.004 C 7.325,12.046 7.147,12.044 6.968,12.042 6.645,12.035 6.325,12.028 6.002,12.016 5.96,12.014 5.92,12.014 5.878,12.011 5.329,11.99 4.784,11.958 4.244,11.911 4.104,11.899 3.965,11.885 3.828,11.871 L 3.283,11.722 C 3.273,11.717 3.264,11.712 3.254,11.708 3.159,11.656 3.067,11.6 2.974,11.534 2.918,11.495 2.862,11.453 2.808,11.406 2.572,11.209 2.343,10.957 2.118,10.639 1.908,10.342 1.702,9.989 1.494,9.573 1.466,9.517 1.438,9.46 1.41,9.404 1.104,8.766 0.792,7.985 0.463,7.043 0.439,6.975 0.416,6.905 0.39,6.835 0.323,6.639 0.259,6.458 0.201,6.299 0.025,5.822 -0.115,5.497 -0.241,5.294 -0.243,5.292 -0.243,5.289 -0.246,5.287 -0.295,5.207 -0.341,5.146 -0.386,5.103 -0.454,5.037 -0.519,5.006 -0.584,5.006 c -0.038,0 -0.068,0.016 -0.092,0.052 -0.042,0.06 -0.063,0.179 -0.063,0.365 0,0.46 -0.185,0.79 -0.482,0.888 -0.06,0.021 -0.126,0.033 -0.196,0.033 -0.309,0 -0.924,-0.188 -1.34,-0.381 C -2.928,5.883 -3.065,5.801 -3.133,5.733 -3.435,5.427 -3.182,4.934 -2.67,4.65 -2.659,4.644 -2.647,4.637 -2.633,4.63 -2.509,4.564 -2.371,4.513 -2.221,4.478 -1.92,4.407 -1.632,4.249 -1.452,4.053 -1.2,3.776 -1.171,3.674 -1.228,3.218 -1.284,2.767 -1.303,1.539 -1.293,0.01 v -0.069 c 0.002,-0.226 0.004,-0.462 0.007,-0.701 0.002,-0.161 0.005,-0.327 0.007,-0.493 0.016,-0.966 0.042,-1.992 0.077,-2.983 0.007,-0.206 0.016,-0.412 0.023,-0.616 0.108,-2.641 0.157,-3.151 0.307,-3.258 0.114,-0.085 0.573,-0.129 1.309,-0.129 0.781,0 1.183,-0.01 1.391,0.233 0.18,0.208 0.22,0.604 0.239,1.352 0.004,0.194 0.009,0.412 0.012,0.657 l 0.03,1.772 0.439,-0.003 2.423,-0.006 2.384,-0.007 c 0.368,-0.002 0.753,-0.002 1.149,-0.005 0.484,-0.002 0.982,-0.004 1.487,-0.009 0.175,-0.003 0.353,-0.003 0.528,-0.005 0.276,-0.002 0.552,-0.005 0.826,-0.007 0.991,-0.009 1.957,-0.018 2.805,-0.028 0.725,-0.01 1.364,-0.018 1.859,-0.028 l 3.405,-0.063 0.03,-1.59 0.026,-1.349 0.002,-0.178 C 19.47,-7.526 19.47,-7.547 19.47,-7.57 c 0,-0.225 0.105,-0.426 0.264,-0.543 0.049,-0.037 0.105,-0.066 0.163,-0.084 0.04,-0.014 0.085,-0.022 0.129,-0.026 v -0.003 h 0.047 0.47 c 0.112,-0.004 0.252,-0.004 0.43,-0.004 0.433,0.002 1.01,0.007 1.242,0.033 0.18,0.021 0.388,0.009 0.439,0.117 l 0.084,3.182 c 0.047,1.732 0.108,4.417 0.138,6 V 1.15 c 0.014,0.751 0.026,1.305 0.04,1.721 0.002,0.059 0.005,0.115 0.007,0.169 0.012,0.292 0.023,0.505 0.042,0.664 0.037,0.349 0.094,0.438 0.197,0.537 0.126,0.124 0.416,0.277 0.647,0.34 0.575,0.156 1.073,0.645 0.987,0.963"
             style="fill:#ffffff;fill-opacity:1;fill-rule:nonzero;stroke:none"
             id="path34"
             inkscape:connector-curvature="0" /></g><g
           id="g36"
           transform="translate(47.7413,35.9447)"
           style=""><path
             d="m 0,0 c 1.507,1.54 3.423,2.31 5.75,2.31 3.113,0 5.39,-1.033 6.83,-3.097 0.795,-1.159 1.221,-2.322 1.28,-3.489 H 9.952 c -0.249,0.896 -0.568,1.573 -0.958,2.03 -0.696,0.812 -1.728,1.218 -3.095,1.218 -1.393,0 -2.491,-0.573 -3.295,-1.72 C 1.8,-3.894 1.398,-5.516 1.398,-7.614 c 0,-2.098 0.425,-3.669 1.273,-4.714 0.848,-1.045 1.926,-1.568 3.233,-1.568 1.341,0 2.363,0.45 3.067,1.346 0.388,0.483 0.711,1.205 0.968,2.17 h 3.883 c -0.335,-2.039 -1.191,-3.697 -2.568,-4.974 -1.377,-1.278 -3.14,-1.917 -5.291,-1.917 -2.661,0 -4.754,0.864 -6.277,2.589 -1.523,1.735 -2.285,4.111 -2.285,7.132 0,3.265 0.867,5.781 2.599,7.55"
             style="fill:#ffffff;fill-opacity:1;fill-rule:nonzero;stroke:none"
             id="path38"
             inkscape:connector-curvature="0" /></g><g
           id="g40"
           transform="translate(71.4708,25.9198)"
           style=""><path
             d="m 0,0 c -0.231,-0.144 -0.465,-0.26 -0.701,-0.349 -0.236,-0.089 -0.56,-0.172 -0.971,-0.248 l -0.824,-0.152 c -0.771,-0.135 -1.325,-0.3 -1.662,-0.495 -0.57,-0.33 -0.854,-0.841 -0.854,-1.535 0,-0.617 0.174,-1.064 0.522,-1.339 0.347,-0.275 0.771,-0.412 1.269,-0.412 0.79,0 1.518,0.229 2.184,0.685 0.666,0.457 1.011,1.29 1.037,2.5 z m -2.211,1.687 c 0.673,0.085 1.154,0.191 1.444,0.318 0.52,0.22 0.78,0.562 0.78,1.028 0,0.567 -0.2,0.958 -0.598,1.174 C -0.984,4.422 -1.569,4.53 -2.341,4.53 -3.207,4.53 -3.82,4.318 -4.181,3.896 -4.438,3.583 -4.609,3.16 -4.695,2.627 h -3.49 c 0.077,1.209 0.416,2.204 1.02,2.982 0.96,1.218 2.608,1.827 4.945,1.827 1.521,0 2.871,-0.3 4.053,-0.901 1.181,-0.6 1.771,-1.734 1.771,-3.401 V -3.21 c 0,-0.44 0.008,-0.973 0.025,-1.599 0.026,-0.474 0.098,-0.795 0.216,-0.965 0.118,-0.169 0.296,-0.309 0.533,-0.418 V -6.725 H 0.444 c -0.11,0.279 -0.186,0.541 -0.228,0.786 -0.043,0.246 -0.076,0.524 -0.102,0.838 -0.502,-0.541 -1.08,-1.003 -1.736,-1.383 -0.782,-0.448 -1.668,-0.673 -2.654,-0.673 -1.26,0 -2.3,0.358 -3.121,1.073 -0.821,0.714 -1.232,1.727 -1.232,3.039 0,1.7 0.661,2.931 1.982,3.692 0.724,0.415 1.79,0.711 3.196,0.888 z"
             style="fill:#ffffff;fill-opacity:1;fill-rule:nonzero;stroke:none"
             id="path42"
             inkscape:connector-curvature="0" /></g><g
           id="g44"
           transform="translate(85.2686,33.3495)"
           style=""><path
             d="m 0,0 c 0.047,-0.004 0.15,-0.011 0.311,-0.019 v -3.705 c -0.228,0.025 -0.431,0.042 -0.609,0.05 -0.178,0.009 -0.322,0.013 -0.431,0.013 -1.456,0 -2.433,-0.474 -2.932,-1.421 C -3.94,-5.615 -4.08,-6.436 -4.08,-7.544 v -6.611 h -3.641 v 13.831 h 3.451 v -2.41 c 0.559,0.922 1.045,1.552 1.459,1.89 0.677,0.567 1.557,0.85 2.64,0.85 C -0.104,0.006 -0.046,0.004 0,0"
             style="fill:#ffffff;fill-opacity:1;fill-rule:nonzero;stroke:none"
             id="path46"
             inkscape:connector-curvature="0" /></g><g
           id="g48"
           transform="translate(89.1275,35.9447)"
           style=""><path
             d="m 0,0 c 1.507,1.54 3.424,2.31 5.75,2.31 3.113,0 5.39,-1.033 6.83,-3.097 0.795,-1.159 1.222,-2.322 1.28,-3.489 H 9.952 c -0.249,0.896 -0.568,1.573 -0.958,2.03 -0.696,0.812 -1.727,1.218 -3.095,1.218 -1.392,0 -2.491,-0.573 -3.295,-1.72 C 1.8,-3.894 1.398,-5.516 1.398,-7.614 c 0,-2.098 0.425,-3.669 1.273,-4.714 0.849,-1.045 1.927,-1.568 3.233,-1.568 1.341,0 2.364,0.45 3.067,1.346 0.388,0.483 0.712,1.205 0.968,2.17 h 3.883 c -0.335,-2.039 -1.19,-3.697 -2.567,-4.974 -1.377,-1.278 -3.141,-1.917 -5.292,-1.917 -2.661,0 -4.754,0.864 -6.277,2.589 -1.523,1.735 -2.285,4.111 -2.285,7.132 0,3.265 0.867,5.781 2.599,7.55"
             style="fill:#ffffff;fill-opacity:1;fill-rule:nonzero;stroke:none"
             id="path50"
             inkscape:connector-curvature="0" /></g><g
           id="g52"
           transform="translate(115.108,32.9496)"
           style=""><path
             d="M 0,0 C 0.695,-0.296 1.266,-0.75 1.712,-1.359 2.091,-1.876 2.322,-2.407 2.407,-2.953 2.491,-3.5 2.533,-4.391 2.533,-5.626 v -8.129 h -3.692 v 8.422 c 0,0.746 -0.126,1.347 -0.378,1.804 -0.327,0.644 -0.949,0.966 -1.864,0.966 -0.95,0 -1.669,-0.32 -2.161,-0.959 -0.491,-0.64 -0.737,-1.552 -0.737,-2.738 v -7.495 H -9.915 V 4.886 h 3.616 v -6.599 c 0.523,0.804 1.127,1.364 1.814,1.682 0.686,0.317 1.408,0.475 2.167,0.475 C -1.468,0.444 -0.694,0.296 0,0"
             style="fill:#ffffff;fill-opacity:1;fill-rule:nonzero;stroke:none"
             id="path54"
             inkscape:connector-curvature="0" /></g><g
           id="g56"
           transform="translate(128.0826,25.9198)"
           style=""><path
             d="m 0,0 c -0.231,-0.144 -0.466,-0.26 -0.701,-0.349 -0.236,-0.089 -0.56,-0.172 -0.972,-0.248 l -0.823,-0.152 c -0.772,-0.135 -1.325,-0.3 -1.662,-0.495 -0.57,-0.33 -0.855,-0.841 -0.855,-1.535 0,-0.617 0.174,-1.064 0.523,-1.339 0.347,-0.275 0.77,-0.412 1.268,-0.412 0.791,0 1.519,0.229 2.185,0.685 0.666,0.457 1.011,1.29 1.037,2.5 z m -2.212,1.687 c 0.674,0.085 1.155,0.191 1.444,0.318 0.521,0.22 0.781,0.562 0.781,1.028 0,0.567 -0.2,0.958 -0.599,1.174 C -0.984,4.422 -1.569,4.53 -2.341,4.53 -3.207,4.53 -3.82,4.318 -4.181,3.896 -4.438,3.583 -4.609,3.16 -4.695,2.627 h -3.49 c 0.077,1.209 0.416,2.204 1.02,2.982 0.96,1.218 2.608,1.827 4.944,1.827 1.522,0 2.872,-0.3 4.053,-0.901 1.182,-0.6 1.772,-1.734 1.772,-3.401 V -3.21 c 0,-0.44 0.008,-0.973 0.025,-1.599 0.025,-0.474 0.098,-0.795 0.216,-0.965 0.118,-0.169 0.296,-0.309 0.533,-0.418 V -6.725 H 0.444 c -0.11,0.279 -0.186,0.541 -0.228,0.786 -0.043,0.246 -0.076,0.524 -0.102,0.838 -0.502,-0.541 -1.081,-1.003 -1.736,-1.383 -0.782,-0.448 -1.668,-0.673 -2.654,-0.673 -1.26,0 -2.3,0.358 -3.121,1.073 -0.822,0.714 -1.232,1.727 -1.232,3.039 0,1.7 0.66,2.931 1.982,3.692 0.724,0.415 1.79,0.711 3.196,0.888 z"
             style="fill:#ffffff;fill-opacity:1;fill-rule:nonzero;stroke:none"
             id="path58"
             inkscape:connector-curvature="0" /></g><g
           id="g60"
           transform="translate(145.3502,32.2328)"
           style=""><path
             d="m 0,0 c 0.905,-0.749 1.358,-1.99 1.358,-3.724 v -9.314 h -3.706 v 8.413 c 0,0.727 -0.095,1.286 -0.289,1.675 -0.353,0.71 -1.024,1.066 -2.015,1.066 -1.218,0 -2.054,-0.521 -2.507,-1.561 -0.236,-0.55 -0.353,-1.252 -0.353,-2.107 v -7.486 h -3.617 V 0.768 h 3.503 V -1.25 c 0.463,0.711 0.901,1.223 1.314,1.536 0.742,0.558 1.681,0.837 2.818,0.837 C -2.07,1.123 -0.906,0.749 0,0"
             style="fill:#ffffff;fill-opacity:1;fill-rule:nonzero;stroke:none"
             id="path62"
             inkscape:connector-curvature="0" /></g><g
           id="g64"
           transform="translate(157.4957,23.1214)"
           style=""><path
             d="m 0,0 c 0.581,0.639 0.872,1.656 0.872,3.052 0,1.311 -0.276,2.31 -0.828,2.995 -0.552,0.685 -1.291,1.028 -2.217,1.028 -1.265,0 -2.136,-0.596 -2.616,-1.789 -0.253,-0.635 -0.379,-1.418 -0.379,-2.348 0,-0.804 0.135,-1.518 0.404,-2.144 0.489,-1.168 1.365,-1.752 2.628,-1.752 0.843,0 1.555,0.319 2.136,0.958 M -1.231,9.917 C -0.354,9.553 0.356,8.885 0.897,7.912 V 9.904 H 4.425 V -3.217 c 0,-1.784 -0.3,-3.13 -0.901,-4.035 -1.032,-1.557 -3.011,-2.335 -5.939,-2.335 -1.768,0 -3.21,0.348 -4.327,1.041 -1.116,0.693 -1.735,1.731 -1.853,3.109 h 3.934 c 0.101,-0.423 0.266,-0.727 0.495,-0.914 0.39,-0.33 1.045,-0.495 1.967,-0.495 1.303,0 2.175,0.436 2.614,1.307 0.288,0.559 0.432,1.498 0.432,2.817 v 0.889 C 0.5,-2.426 0.128,-2.869 -0.271,-3.166 -0.989,-3.716 -1.924,-3.99 -3.074,-3.99 c -1.777,0 -3.197,0.624 -4.258,1.871 -1.062,1.248 -1.593,2.938 -1.593,5.07 0,2.055 0.512,3.783 1.534,5.183 1.022,1.4 2.471,2.1 4.347,2.1 0.692,0 1.297,-0.106 1.813,-0.317"
             style="fill:#ffffff;fill-opacity:1;fill-rule:nonzero;stroke:none"
             id="path66"
             inkscape:connector-curvature="0" /></g><g
           id="g68"
           transform="translate(168.2496,29.6214)"
           style=""><path
             d="M 0,0 C -0.512,-0.527 -0.832,-1.24 -0.964,-2.141 H 5.267 C 5.201,-1.181 4.88,-0.452 4.304,0.045 3.727,0.542 3.012,0.791 2.158,0.791 1.23,0.791 0.511,0.527 0,0 M 5.41,3.125 C 6.375,2.692 7.172,2.01 7.801,1.078 8.367,0.256 8.734,-0.697 8.902,-1.781 9,-2.417 9.039,-3.332 9.021,-4.526 H -1.053 c 0.057,-1.388 0.539,-2.361 1.447,-2.919 0.552,-0.347 1.217,-0.52 1.994,-0.52 0.824,0 1.493,0.211 2.008,0.634 0.281,0.228 0.529,0.546 0.745,0.952 h 3.692 c -0.098,-0.82 -0.544,-1.654 -1.341,-2.5 -1.239,-1.345 -2.973,-2.017 -5.204,-2.017 -1.841,0 -3.465,0.567 -4.872,1.702 -1.407,1.133 -2.11,2.98 -2.11,5.537 0,2.396 0.634,4.233 1.905,5.511 1.27,1.279 2.919,1.918 4.946,1.918 1.204,0 2.288,-0.216 3.253,-0.647"
             style="fill:#ffffff;fill-opacity:1;fill-rule:nonzero;stroke:none"
             id="path70"
             inkscape:connector-curvature="0" /></g></g></g></g></svg>